<?xml version="1.0" encoding="UTF-8" standalone="no"?>
<!-- Created with Inkscape (http://www.inkscape.org/) -->

<svg
   xmlns:dc="http://purl.org/dc/elements/1.1/"
   xmlns:cc="http://creativecommons.org/ns#"
   xmlns:rdf="http://www.w3.org/1999/02/22-rdf-syntax-ns#"
   xmlns:svg="http://www.w3.org/2000/svg"
   xmlns="http://www.w3.org/2000/svg"
   xmlns:sodipodi="http://sodipodi.sourceforge.net/DTD/sodipodi-0.dtd"
   xmlns:inkscape="http://www.inkscape.org/namespaces/inkscape"
   id="svg2"
   version="1.1"
   inkscape:version="0.48.2 r9819"
   width="1023"
   height="993"
   sodipodi:docname="all-seeing-eye.svg">
  <metadata
     id="metadata8">
    <rdf:RDF>
      <cc:Work
         rdf:about="">
        <dc:format>image/svg+xml</dc:format>
        <dc:type
           rdf:resource="http://purl.org/dc/dcmitype/StillImage" />
        <dc:title></dc:title>
      </cc:Work>
    </rdf:RDF>
  </metadata>
  <defs
     id="defs6" />
  <sodipodi:namedview
     pagecolor="#ffffff"
     bordercolor="#666666"
     borderopacity="1"
     objecttolerance="10"
     gridtolerance="10"
     guidetolerance="10"
     inkscape:pageopacity="0"
     inkscape:pageshadow="2"
     inkscape:window-width="1920"
     inkscape:window-height="1128"
     id="namedview4"
     showgrid="false"
     inkscape:zoom="0.5"
     inkscape:cx="783.54958"
     inkscape:cy="373.17622"
     inkscape:window-x="1916"
     inkscape:window-y="-4"
     inkscape:window-maximized="1"
     inkscape:current-layer="svg2" />
  <path
     style="fill:#000000"
     d="m 483.22939,989.3667 c -0.63014,-1.2179 -0.33307,-21.15747 0.85468,-57.3667 3.54313,-108.01443 6.93146,-215.55537 6.92375,-219.75 -0.007,-4.00709 -0.17121,-4.25 -2.86665,-4.25 l -2.85882,0 -5.07748,19.75 c -6.97957,27.1486 -38.12136,150.36119 -39.87108,157.75 -0.78145,3.3 -2.03323,8.25 -2.78173,11 -0.74849,2.75 -5.79141,22.65474 -11.20648,44.23276 -9.51063,37.89807 -10.94567,42.06715 -13.57487,39.43795 -0.52647,-0.52647 2.06822,-17.93292 6.30288,-42.28278 3.95876,-22.76336 7.55346,-43.63793 7.98823,-46.38793 0.43478,-2.75 5.3581,-31.325 10.94072,-63.5 5.58262,-32.175 12.50417,-72.13455 15.38123,-88.79899 l 5.23101,-30.299 -2.99502,0.299 c -2.95874,0.29537 -3.22387,0.85016 -21.88699,45.79899 -41.23107,99.30223 -69.9009,168.40396 -77.32508,186.37355 -7.66309,18.54784 -9.65803,22.2078 -11.48831,21.07662 -1.93144,-1.19369 -4.50097,7.30605 35.05256,-115.95017 7.23641,-22.55 16.92144,-52.7 21.52228,-67 4.60085,-14.3 11.32994,-35.32186 14.95353,-46.71525 3.62359,-11.39338 6.85337,-21.40588 7.17729,-22.25 C 424.08509,709.33587 423.45071,709 420.72627,709 l -3.48771,0 -25.79914,43.25 c -37.0535,62.11694 -91.35361,152.98445 -100.84071,168.75 -7.60082,12.63096 -10.62833,15.80025 -11.37747,11.91029 -0.16838,-0.87435 13.04916,-28.99935 29.37232,-62.5 16.32316,-33.50066 32.93975,-67.66029 36.92576,-75.91029 3.98601,-8.25 13.19638,-27.15 20.46749,-42 7.27111,-14.85 14.79591,-30.375 16.72179,-34.5 1.92587,-4.125 3.70585,-7.8375 3.95551,-8.25 0.24966,-0.4125 -2.38513,-0.72481 -5.85509,-0.69402 l -6.30902,0.056 -14.12588,17.69403 c -23.72647,29.71968 -100.10795,124.25005 -133.41284,165.11285 -4.7555,5.83468 -7.96208,7.60892 -7.96023,4.40449 0.001,-1.93028 16.70069,-26.92038 104.12854,-155.82332 10.44498,-15.4 19.4296,-28.7875 19.96583,-29.75 0.90226,-1.61953 0.17088,-1.74769 -9.81024,-1.71899 L 322.5,709.06202 293,736.72436 C 201.94353,822.10859 167.34394,854 165.76545,854 c -3.72601,0 -1.3247,-3.69673 11.48455,-17.68007 7.2875,-7.95547 16.12657,-17.69446 19.64237,-21.64221 3.5158,-3.94775 9.85783,-11.00272 14.0934,-15.67772 4.23556,-4.675 16.41287,-18.175 27.06068,-30 10.64782,-11.825 24.33079,-26.92236 30.40661,-33.54969 C 283.01433,719.5673 291,710.42549 291,709.6391 291,709.28759 282.65031,709 272.44513,709 l -18.55487,0 -6.19513,4.17745 c -3.40732,2.2976 -16.77013,11.65984 -29.69513,20.80497 -12.925,9.14514 -30.925,21.8241 -40,28.17548 -9.075,6.35138 -25.86756,18.13914 -37.3168,26.19503 C 129.23395,796.40882 118.96346,803 117.85987,803 c -4.24269,0 -0.9364,-3.82818 14.24943,-16.49863 C 140.67963,779.35062 164.6639,759.325 185.40766,742 l 37.71593,-31.5 -36.57133,-0.26233 -36.57134,-0.26233 -35.66052,18.41568 c -19.61329,10.12863 -36.28109,18.17756 -37.03956,17.88651 -0.75846,-0.29105 -1.24107,-1.24554 -1.07245,-2.12109 0.26658,-1.38425 34.15837,-23.27489 61.32077,-39.60697 7.53903,-4.53303 9.64738,-6.38789 12.77521,-11.23924 28.94951,-44.90142 36.52561,-56.81359 36.28579,-57.0534 -0.25395,-0.25395 -37.14975,12.58491 -113.8343,39.61163 -25.94525,9.14415 -31.17696,10.18464 -27.99055,5.56681 0.40408,-0.5856 36.4838,-17.02148 80.17715,-36.52418 l 79.44246,-35.45946 9.71042,-14.97581 c 5.34073,-8.2367 9.39101,-15.09686 9.00062,-15.2448 -0.3904,-0.14793 -44.7842,8.75475 -98.65289,19.78375 C 70.57438,610.04377 25.6,618.93981 24.5,618.78375 23.4,618.62769 22.5,617.825 22.5,617 c 0,-1.75394 4.0656,-3.10064 48,-15.8997 17.05,-4.96703 62.66983,-18.2539 101.3774,-29.52637 38.70757,-11.27246 70.44753,-20.62556 70.53325,-20.78466 0.0857,-0.1591 2.32261,-3.61287 4.97086,-7.67506 l 4.81501,-7.38579 -9.84826,0.65748 c -5.41654,0.36161 -50.79826,3.35091 -100.84826,6.64288 -50.05,3.29198 -99.55,6.58251 -110,7.31229 -19.93016,1.39183 -24.24147,0.97183 -21.20399,-2.06565 1.507,-1.507 8.52524,-2.59277 206.57394,-31.95828 l 52.36995,-7.76511 2.5195,-3.30323 c 1.38572,-1.81678 2.34425,-3.47535 2.13005,-3.6857 -0.37003,-0.3634 -34.14258,-2.95886 -53.38945,-4.10304 -4.95,-0.29427 -13.95,-0.96734 -20,-1.49571 -6.05,-0.52837 -21.35,-1.63042 -34,-2.449 -12.65,-0.81858 -32,-2.14795 -43,-2.95415 -11,-0.80621 -27.65,-1.94162 -37,-2.52314 C 77.15,487.45654 67.025,486.7813 64,486.53751 60.975,486.29373 47.25,485.34882 33.5,484.43772 8.48909,482.78044 4.02099,481.88732 7.26631,479.19395 8.62845,478.06347 65.34496,477.08013 227,475.38423 c 45.23936,-0.4746 64.71939,-1.00627 65.23469,-1.78045 1.65949,-2.4932 0.37968,-3.32705 -7.48469,-4.87654 -4.5375,-0.89401 -35.025,-7.06766 -67.75,-13.71922 -32.725,-6.65156 -63.775,-12.95551 -69,-14.00877 -5.225,-1.05327 -31.775,-6.45392 -59,-12.00145 -27.225,-5.54752 -54.13975,-10.98797 -59.81055,-12.08988 -5.67081,-1.10191 -11.40831,-2.42083 -12.75,-2.93094 -2.58583,-0.98313 -3.28399,-3.45737 -1.18945,-4.21536 0.6875,-0.2488 23.3,2.40402 50.25,5.89517 26.95,3.49114 62.95,8.1329 80,10.31502 17.05,2.18213 60.89028,7.81935 97.42285,12.52718 66.53019,8.57351 67.98416,8.68761 68.06184,5.34137 0.008,-0.3628 -3.24719,-1.76869 -7.23469,-3.12421 -3.9875,-1.35552 -26.15,-9.00712 -49.25,-17.00354 C 209.4113,408.10445 148.64093,387.15204 76.52223,362.34942 51.78445,353.84176 31.20535,346.34523 30.79089,345.69047 c -0.42056,-0.66438 -0.0917,-1.68642 0.74421,-2.31273 1.13892,-0.85338 3.4705,-0.56487 9.73134,1.20416 4.52846,1.27953 34.55856,9.5732 66.73356,18.43037 32.175,8.85718 67.275,18.52406 78,21.48196 10.725,2.9579 29.4,8.09982 41.5,11.4265 12.1,3.32667 39.07863,10.77203 59.95252,16.54522 37.75669,10.44257 39.52191,10.75679 39.515,7.03405 -0.002,-0.9647 -16.3161,-9.29217 -177.46752,-90.58653 -40.7,-20.5315 -78.05,-39.37378 -83,-41.87173 -8.4541,-4.26626 -11.32686,-7.1336 -8.29909,-8.28343 1.11739,-0.42434 23.86953,8.83448 37.79909,15.38207 2.475,1.16338 6.075,2.69881 8,3.41208 4.04678,1.49945 6.50059,2.54525 58,24.71923 158.9433,68.43586 178.43493,76.64373 179.18936,75.45617 0.42901,-0.67532 0.78691,-1.5179 0.79533,-1.87238 0.008,-0.35449 -7.52219,-5.84287 -16.73469,-12.1964 C 308.66679,372.22224 300.90347,366.83998 243.52557,327 c -16.23836,-11.275 -31.66208,-21.96113 -34.27493,-23.74695 -2.61285,-1.78583 -6.85131,-4.75395 -9.41879,-6.59582 -2.56748,-1.84188 -10.56258,-7.35575 -17.7669,-12.25305 C 136.34368,253.32407 92.47652,222.25561 92.18832,220.75 91.32349,216.23185 91.47575,216.3179 196,279.41798 c 7.975,4.81442 15.85,9.61955 17.5,10.67808 1.65,1.05853 20.1,12.18813 41,24.73245 20.9,12.54433 52.07959,31.29401 69.28799,41.66598 28.10832,16.94164 31.44375,18.70234 32.8207,17.3254 1.37694,-1.37695 -2.7642,-5.4853 -40.74901,-40.4263 C 292.60474,312.00211 258.66801,280.775 240.44474,264 222.22146,247.225 191.30001,218.875 171.7304,201 c -25.92859,-23.68334 -35.60136,-33.11038 -35.65575,-34.75 -0.0411,-1.2375 0.50789,-2.25 1.21989,-2.25 0.71199,0 5.54949,3.45434 10.75,7.67631 5.2005,4.22197 13.95546,11.33965 19.45546,15.81706 5.5,4.47741 29.8,24.24952 54,43.93803 24.2,19.6885 49.4,40.212 56,45.60777 15.09197,12.33831 75.54773,61.50882 85.30622,69.38216 6.52182,5.26192 7.46864,5.73239 8.81899,4.38204 1.35035,-1.35035 0.6733,-2.52808 -6.30623,-10.96968 C 361.01854,334.63239 350.075,321.21741 341,310.02263 331.925,298.82784 320.225,284.40677 315,277.97581 306.56697,267.59639 298.23059,257.31414 264.34751,215.5 242.97537,189.12527 230.49441,173.73597 221.76918,163 c -31.0688,-38.22863 -35.64444,-44.16148 -35.11771,-45.53413 1.02528,-2.67185 3.05497,-1.53459 9.43064,5.28413 3.47129,3.7125 26.55074,28.35 51.28768,54.75 24.73694,26.4 50.63589,54.06677 57.55323,61.48171 6.91734,7.41495 17.07698,18.22432 22.57698,24.02083 8.17058,8.61106 39.68034,42.26127 55.61171,59.38939 C 386.62623,326.17046 389,326.56375 389,323.36752 389,322.13179 348.8314,254.21766 303.0207,178 265.60992,115.75773 244,78.798058 244,77.05627 244,75.916237 244.65329,75 245.46616,75 c 0.80638,0 28.33763,37.6875 61.18054,83.75 90.49704,126.92297 98.65047,138.25 99.51521,138.25 0.43999,0 1.0609,-1.03958 1.37981,-2.31018 0.56275,-2.24218 -0.99498,-6.19019 -32.03423,-81.18982 -4.55245,-11 -14.22515,-34.4 -21.49489,-52 -7.26974,-17.6 -17.61065,-42.575 -22.9798,-55.5 -24.25515,-58.388761 -25.21477,-60.852414 -24.32333,-62.445332 0.72365,-1.293089 1.17394,-1.349317 2.51931,-0.314588 1.40884,1.083539 20.70681,37.827248 68.1632,129.78406 36.03126,69.8182 48.18527,92.96568 48.81587,92.97048 0.38931,0.003 1.94038,-2.09778 3.44681,-4.66831 l 2.73896,-4.67368 -2.69051,-10.57632 C 428.22333,240.25934 415.06584,188.475 400.46425,131 385.86265,73.525 373.52097,25.299064 373.03829,23.831252 c -1.01975,-3.101027 0.69961,-6.275818 2.71026,-5.004474 0.6867,0.434205 2.55084,4.588309 4.14253,9.231342 1.59169,4.643034 14.90611,42.86688 29.58761,84.94188 14.6815,42.075 29.41436,84.375 32.73969,94 3.32534,9.625 6.46299,18.61129 6.97256,19.96954 0.87157,2.32314 1.30834,1.88637 7.36778,-7.36776 C 460.10142,214.19127 463,208.7655 463,207.54451 c 0,-1.22099 -1.78424,-18.8305 -3.96497,-39.13225 C 456.8543,148.11052 453.94519,120.7 452.57036,107.5 c -1.37483,-13.2 -4.35218,-41.242638 -6.61632,-62.316973 -2.26414,-21.074335 -3.86916,-38.961835 -3.56671,-39.75 0.76702,-1.998842 3.37091,-1.79244 3.99882,0.316973 0.28651,0.9625 3.48868,17.05 7.11595,35.75 3.62726,18.7 7.69688,39.625 9.0436,46.5 5.06912,25.87785 11.31133,58.10271 14.57543,75.24438 1.85838,9.75941 3.61143,17.74691 3.89567,17.75 0.44067,0.005 14.33146,-21.11737 23.22698,-35.31864 l 2.74377,-4.38031 2.03395,-50.89771 c 1.11868,-27.993748 2.37061,-59.555778 2.78207,-70.137848 0.6156,-15.832107 1.0393,-19.53130899 2.39198,-20.88399799 1.52516,-1.52515901 1.71749,-1.36339001 2.6633,2.24012799 0.56069,2.136199 1.75113,21.433998 2.64542,42.883998 0.89429,21.45 2.23124,51.97805 2.97099,67.84011 l 1.345,28.84011 13.30585,20.00942 c 10.5209,15.82141 13.4624,19.62231 14.05386,18.15989 0.62381,-1.54242 8.67084,-44.58315 15.86373,-84.84953 10.35551,-57.970882 16.43013,-89.233627 17.57661,-90.457143 1.03695,-1.106623 1.64485,-1.1777 2.52708,-0.295472 0.88222,0.882229 0.40282,9.050706 -1.99294,33.957143 -1.73503,18.03751 -5.18276,53.945472 -7.66162,79.795472 -2.47886,25.85 -5.46829,56.9813 -6.64318,69.18068 l -2.13615,22.18067 3.51858,5.31933 c 1.93522,2.92562 4.91071,7.52288 6.61219,10.21612 2.99411,4.73931 3.12279,4.81972 4.00094,2.5 0.49904,-1.31824 10.68253,-31.4218 22.62999,-66.8968 11.94746,-35.475 27.64064,-82.05 34.87373,-103.5 9.5547,-28.334826 13.59523,-39.081792 14.77524,-39.299092 0.8933,-0.164501 1.86283,0.322834 2.15452,1.082965 0.29169,0.760132 -1.40008,9.219723 -3.75949,18.799092 -5.68442,23.079162 -23.78288,97.390065 -47.4699,194.907795 l -5.9488,24.49077 3.08308,4.80456 3.08308,4.80456 1.69738,-2.79533 C 608.8976,261.7579 619.24911,241.375 630.96739,218 c 11.71829,-23.375 24.3295,-48.35 28.02493,-55.5 3.69542,-7.15 18.75298,-36.97442 33.46124,-66.27649 C 707.16181,66.921437 719.85892,42.283937 720.66935,41.473507 721.47978,40.663078 722.56071,40 723.07143,40 c 2.85007,0 4.19737,-3.468601 -79.9667,205.87295 -17.06485,42.44545 -18.90343,47.57636 -17.67612,49.32859 1.2798,1.82716 1.82608,1.30994 8.31543,-7.87295 7.81654,-11.06098 77.49908,-110.97276 95.0811,-136.32859 6.29271,-9.075 13.21379,-18.975 15.38017,-22 2.16638,-3.025 11.09595,-15.85 19.8435,-28.5 8.74754,-12.65 17.02255,-24.274907 18.3889,-25.833126 C 784.91851,71.837709 787,71.804477 787,74.594034 787,75.405833 776.83358,93.49178 764.40796,114.78502 751.98234,136.07826 738.53488,159.125 734.52472,166 c -4.01017,6.875 -16.61279,28.475 -28.00583,48 -11.39304,19.525 -23.98876,41.125 -27.99048,48 -4.00172,6.875 -13.40768,22.94868 -20.90213,35.71928 C 644.87808,319.44231 642.67026,324 644.89549,324 c 0.49252,0 19.73002,-20.34968 42.75,-45.22151 23.01998,-24.87183 44.81787,-48.38433 48.43976,-52.25 3.62188,-3.86567 15.54688,-16.72753 26.5,-28.58191 C 831.76495,123.07449 841.31388,113 843.10032,113 c 1.04482,0 1.89968,0.62786 1.89968,1.39524 0,0.76739 -16.72896,22.25489 -37.17546,47.75 -20.4465,25.49512 -61.56702,76.76113 -91.37894,113.92448 -29.81191,37.16335 -54.81166,68.54357 -55.55499,69.73383 -1.15153,1.84389 -1.12807,2.38756 0.15853,3.67416 1.34672,1.34672 1.93946,1.16091 5.48045,-1.71795 5.94256,-4.83138 59.07597,-48.7731 82.48829,-68.21843 11.28484,-9.37273 31.93993,-26.49133 45.9002,-38.04133 13.96028,-11.55 41.76539,-34.58853 61.78914,-51.19673 22.83923,-18.94343 36.94457,-29.99039 37.8498,-29.64302 3.7018,1.42052 5.60298,-0.48984 -61.55702,61.85375 -20.075,18.63531 -45.92657,42.68069 -57.44793,53.43419 -26.42895,24.66754 -48.47532,45.18439 -65.06591,60.55181 -10.92043,10.1153 -20.74055,19.26104 -33.33831,31.04883 -2.0115,1.88218 -2.18142,2.51992 -1.17331,4.4036 0.64837,1.21148 1.75375,1.98208 2.4564,1.71244 0.70266,-0.26963 21.48065,-12.96981 46.17331,-28.22261 C 787.53797,306.56773 790.09743,305 790.62978,305 c 0.26133,0 4.16403,-2.4152 8.67268,-5.36712 4.50865,-2.95191 11.12254,-7.15053 14.69754,-9.33027 8.37435,-5.10598 19.36184,-11.88089 76.42512,-47.12389 25.80882,-15.93985 47.52132,-28.75277 48.25,-28.47315 3.63011,1.39301 -0.21366,4.77752 -24.75176,21.79443 -14.27564,9.9 -36.63593,25.49226 -49.68953,34.64947 -28.31184,19.86098 -32.80989,23.01684 -67.73383,47.52243 -14.85,10.42002 -30.15,21.14092 -34,23.82422 -49.74426,34.66982 -72.49445,50.78618 -72.4682,51.33688 0.0175,0.36685 0.58172,1.38902 1.25384,2.27148 1.32053,1.7338 -7.6189,5.54891 143.71436,-61.33341 29.975,-13.24756 60.00085,-26.47396 66.72412,-29.39199 6.72326,-2.91803 14.14826,-6.17935 16.5,-7.24737 2.35173,-1.06803 8.32588,-3.71605 13.27588,-5.88449 4.95,-2.16844 16.35181,-7.19421 25.33736,-11.16839 8.98554,-3.97417 16.97304,-6.98183 17.75,-6.68368 3.61639,1.38774 0.0729,3.94159 -18.83736,13.57619 -11.1375,5.67448 -25.65,13.11719 -32.25,16.53937 -6.6,3.42217 -33.6,17.27379 -60,30.78136 -26.4,13.50757 -59.925,30.67069 -74.5,38.14026 -14.575,7.46958 -39.44002,20.1819 -55.25561,28.24962 -27.81521,14.18886 -28.70958,14.73641 -27.34824,16.74331 0.77405,1.14111 2.01408,2.02906 2.75561,1.97322 0.74153,-0.0558 66.20095,-18.61834 145.46537,-41.25 C 933.88155,356.51682 999.4425,338 1000.3081,338 c 2.2648,0 3.1601,1.9792 1.5602,3.44922 -0.7525,0.69152 -7.2183,3.3149 -14.3683,5.82974 -15.68883,5.51817 -34.17915,12.0978 -78.5,27.93359 -18.425,6.58323 -39.575,14.13487 -47,16.78143 -38.21719,13.62208 -86.46998,30.86304 -102,36.44511 -9.625,3.45958 -21.775,7.77429 -27,9.58824 -10.78241,3.74329 -11.22178,3.99578 -10.10318,5.80573 0.87207,1.41103 -9.29954,2.74976 200.10318,-26.33633 95.9792,-13.33154 99.5967,-13.69609 97.184,-9.79393 -0.409,0.66154 -28.18026,7.04372 -61.71384,14.18264 C 924.93657,429.02435 862.175,442.37082 819,451.54426 c -43.175,9.17344 -78.62309,16.78934 -78.77354,16.92423 -0.15044,0.13489 -0.0181,0.91077 0.29398,1.72418 0.4912,1.28005 11.1517,1.56816 79.27354,2.14243 43.28831,0.36493 107.56342,0.66382 142.83358,0.6642 53.01604,5.8e-4 64.32414,0.23762 65.26234,1.36802 2.6317,3.17107 6.9023,2.7296 -127.8899,13.22063 -10.175,0.79193 -21.65,1.67916 -25.5,1.97161 -3.85,0.29246 -12.175,0.98593 -18.5,1.54104 -17.84206,1.56589 -32.69973,2.75643 -42,3.36543 -4.675,0.30613 -10.75,0.76875 -13.5,1.02804 -2.75,0.25929 -7.925,0.71099 -11.5,1.00378 -23.57762,1.931 -28.2259,2.39471 -28.69369,2.8625 -0.67895,0.67895 3.55289,6.63965 4.71387,6.63965 0.48619,0 10.69305,1.36345 22.6819,3.0299 59.25294,8.23613 177.07466,24.52194 202.79792,28.03158 34.2791,4.67698 34.4766,4.71388 35.1911,6.57594 0.8626,2.24793 -0.2925,2.73555 -5.9526,2.51273 -5.7589,-0.2267 -168.53264,-9.25672 -210.62685,-11.68471 -14.51359,-0.83714 -26.5304,-1.38003 -26.70401,-1.20642 -0.1736,0.17361 1.79418,3.51817 4.37285,7.43235 l 4.6885,7.1167 12.51551,3.48504 c 29.6336,8.2517 182.40595,51.08194 191.5155,53.692 5.5,1.57586 11.9125,3.36623 14.25,3.97859 3.1771,0.83231 4.25,1.60856 4.25,3.07484 0,1.38705 -0.6819,1.96146 -2.3286,1.96146 -1.2807,0 -27.9432,-4.97101 -59.24998,-11.04669 C 921.11464,596.87762 881.775,589.2516 865,586.00659 c -16.775,-3.24501 -36.0125,-6.97611 -42.75,-8.29134 -6.7375,-1.31522 -12.22281,-2.1267 -12.18958,-1.80328 0.0332,0.32342 4.42073,7.08477 9.75,15.02524 L 829.5,605.37442 865,620.73686 c 104.91234,45.40027 125.61012,54.5497 126.75375,56.03134 0.85455,1.10713 0.92805,1.95 0.23083,2.64722 -0.69723,0.69723 -4.91718,-0.28567 -13.25375,-3.08702 -12.82529,-4.30969 -85.24829,-28.97274 -114.02137,-38.82902 -9.23479,-3.1634 -16.97826,-5.56391 -17.20771,-5.33446 -0.51108,0.51107 35.27628,55.25446 38.61042,59.06179 1.31331,1.49969 18.13783,12.25008 37.38783,23.88975 35.06271,21.20096 38.5,23.43921 38.5,25.06991 0,2.82581 -6.32531,0.21996 -38.66668,-15.92959 -29.73406,-14.8476 -36.51417,-17.87101 -39.83332,-17.76261 -2.2,0.0718 -18.79049,0.21505 -36.86775,0.31823 L 813.7645,707 l 9.86775,8.07295 c 5.42726,4.44012 15.26775,12.507 21.86775,17.9264 14.59733,11.98617 56.04559,45.87683 67.87726,55.50065 8.24183,6.70386 10.72799,10.50166 6.87274,10.49862 -0.9625,-7.6e-4 -10.75,-6.20132 -21.75,-13.77903 -11,-7.57771 -25.175,-17.32891 -31.5,-21.66934 -27.66154,-18.98226 -62.13384,-42.7475 -69.5,-47.91336 -13.18899,-9.24941 -11.11448,-8.71385 -32.57118,-8.40851 l -19.08689,0.27162 32.82904,35.55774 c 18.05596,19.55676 45.69334,49.48176 61.41639,66.5 15.72304,17.01824 30.01054,32.57667 31.75,34.57428 3.37663,3.87776 4.10666,6.86798 1.67673,6.86798 -1.51364,0 -6.4302,-4.40789 -77.47105,-69.4559 C 773.79172,761.16985 746.37079,736.0625 735.10766,725.75 L 714.62922,707 l -10.4216,0 c -8.99055,0 -10.34014,0.21229 -9.82835,1.54598 0.32628,0.85028 13.72874,20.53778 29.78322,43.75 16.05449,23.21221 39.29708,56.82902 51.65019,74.70402 12.35311,17.875 26.39113,38.125 31.1956,45 15.53748,22.2335 15.94576,23.00055 12.24172,22.99951 -2.25036,-6.3e-4 -5.2393,-3.53281 -80.76073,-95.43906 C 733.54517,793.5437 723.875,781.83547 717,773.54216 710.125,765.24885 695.12889,747.10915 683.67532,733.23171 L 662.85064,708 l -5.92532,0 C 653.66639,708 651,708.22581 651,708.5018 c 0,0.27599 24.76871,50.0376 55.04157,110.58134 37.05523,74.10803 54.84787,110.68984 54.44881,111.94717 -0.79321,2.49918 -2.94983,1.53537 -5.30227,-2.36961 C 754.14087,926.92231 744.74119,911.55 734.29991,894.5 694.71228,829.85566 673.76946,795.61614 657.53707,769 c -9.22429,-15.125 -20.24956,-33.125 -24.5006,-40 -4.25104,-6.875 -8.79915,-14.37485 -10.10692,-16.66634 -2.03223,-3.56092 -2.92642,-4.21866 -6.15365,-4.52642 -2.07674,-0.19805 -3.7759,0.0688 -3.7759,0.59296 0,0.82117 24.58111,74.33761 71.0955,212.6303 7.26246,21.59212 12.01976,37.22675 11.63357,38.23314 -1.46694,3.82279 -4.03684,-0.42422 -12.76753,-21.09957 C 671.90567,911.98242 671.59113,911.23571 624.1315,798.5 l -37.88832,-90 -3.62159,-0.31037 C 579.88354,707.95499 579,708.25745 579,709.42939 c 0,1.5401 5.28385,30.37955 29.96876,163.57061 20.86035,112.55506 19.54531,104.88593 18.21346,106.21778 -2.77342,2.77342 -3.54663,0.23742 -23.23848,-76.21778 -2.05405,-7.975 -7.63766,-29.35 -12.40802,-47.5 -4.77036,-18.15 -15.18054,-57.975 -23.13373,-88.5 -7.95319,-30.525 -14.70255,-56.2875 -14.99856,-57.25 -0.3603,-1.17153 -1.55661,-1.75 -3.61912,-1.75 l -3.08092,0 0.65845,14.75 c 0.36215,8.1125 1.98267,48.5 3.60117,89.75 1.6185,41.25 3.41229,85.8 3.98621,99 2.78441,64.04119 3.18862,75.6984 2.67155,77.0459 -0.85966,2.2402 -3.52265,1.7217 -4.08732,-0.7959 -0.42797,-1.9081 -5.10553,-43.72864 -10.98911,-98.25 -0.83093,-7.7 -5.56833,-50.43298 -10.52756,-94.96217 C 527.05755,750.00863 523,712.32113 523,710.78783 523,708.35691 522.61593,708 520,708 c -1.65,0 -3,0.37683 -3,0.8374 0,0.46058 -0.91441,9.10379 -2.03201,19.20714 -1.11761,10.10335 -3.57925,33.01401 -5.47032,50.91259 -1.89106,17.89858 -4.59042,43.11787 -5.99857,56.04287 -1.40815,12.925 -3.22152,29.575 -4.0297,37 -0.80818,7.425 -2.14416,20.025 -2.96885,28 -6.98094,67.50822 -9.51325,88.4413 -10.86209,89.7901 -1.25762,1.2576 -1.56742,1.2032 -2.40907,-0.4234 z M 547,693.49752 c 271.84785,-1.44094 320.52672,-1.74156 320.79035,-1.98108 0.15969,-0.14509 -6.38713,-10.33314 -14.54848,-22.64012 C 845.08051,656.56934 832.492,637.5 825.26739,626.5 c -7.22461,-11 -25.20279,-38.32998 -39.95152,-60.73328 -14.74873,-22.40331 -38.44088,-58.40331 -52.64922,-80 -14.20835,-21.5967 -30.63335,-46.56196 -36.5,-55.47836 C 690.29999,421.37196 673.35,395.60762 658.5,373.03428 643.65,350.46094 620.62192,315.45618 607.32648,295.24592 594.03105,275.03566 576.62436,248.6 568.64495,236.5 c -7.9794,-12.1 -23.08649,-35.04922 -33.5713,-50.99827 -10.4848,-15.94905 -19.40312,-29.0938 -19.81847,-29.21056 -0.41535,-0.11676 -13.11354,19.00746 -28.21821,42.49827 C 471.9323,222.28025 451.87149,253.425 442.45739,268 c -9.4141,14.575 -24.23394,37.525 -32.93298,51 -8.69903,13.475 -17.70655,27.425 -20.01671,31 -5.25484,8.13192 -25.40118,39.31153 -31.01463,48 -2.30974,3.575 -13.33315,20.675 -24.49645,38 -11.16331,17.325 -31.6381,49.05 -45.49955,70.5 -20.81111,32.20432 -90.15426,139.66611 -101.95454,158 -1.76999,2.75 -6.12679,9.5 -9.68178,15 -3.555,5.5 -7.27733,11.29698 -8.27185,12.88218 l -1.80822,2.88218 146.35966,-0.65153 C 393.63815,694.2545 498.875,693.7526 547,693.49752 z M 203,674.47751 c 0,-0.28736 5.9035,-9.17486 13.1189,-19.75 7.21539,-10.57513 13.33854,-19.79001 13.60699,-20.47751 0.3698,-0.94707 5.79367,-1.25 22.3811,-1.25 L 274,633 l 0,21 0,21 -35.5,0 c -19.525,0 -35.5,-0.23512 -35.5,-0.52249 z m 82.61887,-0.28517 c -0.27454,-0.44421 -0.23131,-9.89421 0.0961,-21 L 286.31015,633 l 40.84493,0 40.84492,0 0,21 0,21 -40.94098,0 c -22.51754,0 -41.16561,-0.36345 -41.44015,-0.80766 z M 380,654 l 0,-21 41.5,0 41.5,0 0,21 0,21 -41.5,0 -41.5,0 0,-21 z m 94,0 0,-21 41.5,0 41.5,0 0,21 0,21 -41.5,0 -41.5,0 0,-21 z m 94.91667,20.58532 c -0.22917,-0.22807 -0.28645,-9.67807 -0.1273,-21 L 569.07873,633 l 40.96064,0 40.96063,0 0,21 0,21 -40.83333,0 c -22.45834,0 -41.02084,-0.18661 -41.25,-0.41468 z M 663,654 l 0,-21 41.5,0 41.5,0 -0.011,17.25 c -0.006,9.4875 -0.28993,18.9375 -0.63084,21 l -0.61983,3.75 -40.86916,0 -40.86916,0 0,-21 z m 94,0 0,-21 25.87857,0 25.87857,0 13.62143,20.51687 C 829.87036,664.80115 836,674.25115 836,674.51687 836,674.78259 818.225,675 796.5,675 l -39.5,0 0,-21 z M 337.75,618.26496 333,617.89042 333,596.94521 333,576 l 41,0 41,0 0,21.5 0,21.5 -36.25,-0.18025 c -19.9375,-0.0991 -38.3875,-0.34879 -41,-0.55479 z m 89.70866,-0.33185 c -0.36266,-0.5868 -0.33381,-9.98309 0.0641,-20.88065 l 0.72349,-19.81375 8.62687,-0.64839 c 7.31843,-0.55005 9.43015,-0.33861 13.92301,1.3941 12.77241,4.92576 44.81345,12.00112 54.39485,12.01156 2.03004,0.002 3.99461,0.49529 4.3657,1.09573 0.37109,0.60044 0.35155,7.12544 -0.0434,14.5 L 508.79511,619 l -40.33854,0 c -27.49981,0 -40.5484,-0.33957 -40.99791,-1.06689 z M 522,604.65106 l 0,-14.34894 9.75,-0.61183 c 16.69915,-1.04791 41.64969,-6.06075 54.25,-10.89943 3.025,-1.16164 8.3125,-2.3032 11.75,-2.53679 l 6.25,-0.42472 0,21.58532 0,21.58533 -41,0 -41,0 0,-14.34894 z m 113.25,13.60025 -19.25,-0.2945 0,-20.9784 0,-20.97841 41,0 41,0 0,21.5 0,21.5 -21.75,-0.2271 c -11.9625,-0.1249 -30.4125,-0.35962 -41,-0.52159 z m 75.08386,-14.84985 c 0.36271,-8.7458 0.66098,-18.48896 0.66281,-21.65146 L 711,576 l 30.25,0.0341 30.25,0.0341 11.77819,20.6044 c 6.47801,11.33242 11.6524,20.73019 11.49865,20.88395 -0.15376,0.15375 -19.36471,0.6096 -42.69101,1.01299 l -42.41145,0.73344 0.65948,-15.90147 z M 239,617.53519 c 0,-0.67085 24.02159,-37.70002 25.80947,-39.78519 1.3611,-1.58742 4.04094,-1.75 28.84552,-1.75 L 321,576 l 0,21 0,21 -41,0 c -22.55,0 -41,-0.20917 -41,-0.46481 z m 255.30385,-43.6179 C 484.49831,572.42343 466.39277,567.57448 455.5,563.525 434.83607,555.843 417.17439,546.2925 378.5,521.8875 342.83413,499.38098 340.39556,498.10978 326.10307,494.57347 315.13858,491.86058 313,490.80085 313,488.0805 c 0,-3.38085 12.25514,-13.18893 27,-21.60874 4.675,-2.66958 20.80979,-12.88989 35.85509,-22.7118 34.13006,-22.28087 47.15661,-30.22328 63.64491,-38.8049 23.15014,-12.04889 46.65748,-20.08978 67.30304,-23.02157 11.04123,-1.56792 41.18016,-0.65669 51.19696,1.54791 41.81165,9.20232 86.58152,36.81991 128,78.9605 4.675,4.7565 12.8875,12.0804 18.25,16.27532 5.3625,4.19492 9.75,8.36631 9.75,9.26974 0,0.90344 -1.4625,2.34738 -3.25,3.20876 -1.7875,0.86138 -7.78407,4.94086 -13.3257,9.0655 -53.19907,39.5961 -99.88515,62.87743 -144.00649,71.81292 -8.77017,1.77614 -15.04871,2.26774 -31.91781,2.4991 -11.55,0.15841 -23.78827,-0.13677 -27.19615,-0.65595 z m 15.26716,-32.18633 c -3.26094,-1.76866 -8.68047,-5.92689 -12.04339,-9.24051 C 488.529,523.62374 483.99586,515.0412 478.42934,496.33186 474.31845,482.51497 472.488,479 469.40361,479 c -1.75745,0 -3.80328,1.20433 -5.99687,3.53021 -7.76663,8.23502 -6.9055,21.18342 2.34337,35.23615 7.60355,11.55282 24.39769,22.36778 39.74989,25.59782 10.16569,2.13882 10.66002,1.9405 4.07101,-1.63322 z M 597,535.02247 c 16.73965,-6.23916 40.63838,-18.11113 58.93306,-29.27567 C 669.05902,497.73653 682,488.88338 682,487.91396 c 0,-1.21058 -30.51611,-21.3126 -45.02857,-29.66187 -11.19193,-6.43892 -34.98447,-18.54362 -38.69082,-19.68435 -2.11746,-0.65171 -2.05559,-0.32451 1.34727,7.12459 6.78933,14.86232 9.39437,30.6607 7.42027,45.00063 -2.67133,19.40465 -7.48514,30.53417 -20.43439,47.24427 -0.91354,1.17886 -0.75422,1.29732 0.88624,0.65893 1.1,-0.42807 5.375,-2.03622 9.5,-3.57369 z m -153.44581,-2.93663 c -6.17077,-9.77514 -10.10535,-25.07963 -11.09303,-43.1491 -0.77817,-14.23636 1.1389,-26.72195 5.93819,-38.67475 1.82455,-4.5441 3.10108,-8.26199 2.83673,-8.26199 -0.26434,0 -10.66311,4.89156 -23.10835,10.87014 C 385.63379,468.47992 374.03082,472.64051 346,478.73368 l -4.5,0.97818 3.5,1.31685 c 8.34812,3.14092 29.61693,14.54586 43,23.05782 26.95679,17.14519 35.46019,22.19687 46.4071,27.56942 6.00265,2.946 11.09917,5.17111 11.3256,4.94469 0.22642,-0.22643 -0.75391,-2.25808 -2.17851,-4.5148 z m 126.97295,-31.6074 c 6.19812,-11.01119 8.13061,-26.82035 4.93542,-40.37533 -3.40353,-14.43884 -13.94783,-28.39831 -26.47355,-35.04803 -6.37383,-3.38376 -6.71089,-3.44589 -18.98901,-3.5 l -12.5,-0.0551 -0.30861,3.18632 c -0.46994,4.85202 1.95999,8.42258 11.54149,16.95914 18.34239,16.342 29.73875,28.53583 33.15483,35.47489 4.7017,9.5505 5.93993,18.02061 3.88884,26.60169 -1.85542,7.76252 -1.18828,7.307 4.75059,-3.2436 z M 385.66667,563.33333 C 384.80661,562.47328 384.79037,543 385.64971,543 386.44091,543 417,563.11006 417,563.63073 c 0,0.67314 -30.65375,0.38219 -31.33333,-0.2974 z m -110.55465,-0.91939 c 0.71624,-1.6872 23.09998,-38.88154 25.07356,-41.66394 l 1.95061,-2.75 20.9114,0 20.91141,0 14.5205,9.46977 14.5205,9.46977 0,12.53023 0,12.53023 -22.75,0.002 c -12.5125,0.001 -34.62459,0.29989 -49.13798,0.66393 -15.82846,0.39703 -26.23272,0.29617 -26,-0.25204 z M 629,561.57569 C 629,560.92667 654.98822,547 656.19935,547 c 0.67111,0 0.83407,1.381 0.4425,3.75 -0.34091,2.0625 -0.62479,5.4375 -0.63084,7.5 L 656,562 l -13.5,0 c -7.425,0 -13.5,-0.19094 -13.5,-0.42431 z m 37,-6.95069 c 0,-12.78247 -0.61792,-11.8925 16.5767,-23.875 l 15.426,-10.75 18.0052,0 18.00521,0 4.6713,7.25 c 2.56922,3.9875 8.62203,13.4375 13.4507,21 l 8.7794,13.75 -47.45726,0 -47.45725,0 0,-7.375 z m -6.28688,-134.31908 c -10.88278,-8.56102 -19.65778,-15.67371 -19.5,-15.80597 0.15778,-0.13227 5.12903,-0.0147 11.04722,0.26132 l 10.76035,0.50181 5.82609,9.61846 c 3.20435,5.29015 7.48852,12.20596 9.52038,15.36846 2.03187,3.1625 3.34297,5.72107 2.91357,5.68571 -0.4294,-0.0354 -9.68483,-7.06877 -20.56761,-15.62979 z M 360,433.55515 c 0,-0.84897 17.74734,-27.28238 18.71278,-27.87137 1.32424,-0.80788 27.45107,0.55416 26.59133,1.38626 -0.44226,0.42804 -9.35411,5.79984 -19.80411,11.93734 -10.45,6.1375 -20.4625,12.05834 -22.25,13.15742 -1.7875,1.09907 -3.25,1.72473 -3.25,1.39035 z M 620.29136,391.22511 616.08273,388.5 616.04136,369.25 616,350 l 2.77146,0 c 2.48108,0 4.1313,2.00927 15.75,19.17686 7.1382,10.54727 13.81023,20.44727 14.82674,22 L 651.1964,394 637.8482,393.9751 c -12.81542,-0.0239 -13.51618,-0.13366 -17.55684,-2.75 z m -236.12469,0.93092 C 384.35,391.69184 390.125,382.03472 397,370.69576 c 12.26003,-20.2205 12.56479,-20.61705 15.875,-20.65603 3.25221,-0.0383 3.35226,0.074 2.75,3.08527 -0.34375,1.71875 -0.625,11.39375 -0.625,21.5 l 0,18.375 -15.58333,0 c -8.57084,0 -15.43334,-0.37979 -15.25,-0.84397 z M 428,370.5 l 0,-20.5 41,0 41,0 0.15,8 c 0.0825,4.4 0.195,8.54347 0.25,9.20771 0.0659,0.79537 -3.31423,1.63162 -9.9,2.4493 -18.736,2.32625 -43.56884,9.29249 -63.33861,17.7681 C 432.57515,389.3913 428.63765,391 428.41139,391 428.18512,391 428,381.775 428,370.5 z m 169.77712,10.44583 c -5.77702,-3.05042 -21.08023,-7.91201 -31.67466,-10.06255 -5.87115,-1.19176 -16.08047,-2.18661 -26.27348,-2.56022 -19.15624,-0.70214 -17.79154,0.18438 -17.81533,-11.57306 L 522,350 l 41,0 41,0 0,16.5 c 0,18.16393 0.1517,17.81178 -6.22288,14.44583 z M 419,335.5284 c 0,-0.55446 14.655,-23.57416 22.45923,-35.2784 l 4.8342,-7.25 8.37317,0 8.37318,0 -0.26989,21.25 -0.26989,21.25 -21.75,0.2695 C 428.7875,335.91773 419,335.8092 419,335.5284 z m 56,-21.11208 0,-21.58368 40.75,0.38605 40.75,0.38604 0.5,5.94764 c 0.275,3.2712 0.3655,12.81013 0.2011,21.19763 l -0.2989,15.25 -40.9511,0 -40.9511,0 0,-21.58368 z m 94,0.0837 0,-21.5 7.27321,0 7.27321,0 13.19491,19.75 c 7.2572,10.8625 13.4824,20.5375 13.83378,21.5 0.59563,1.63157 -0.78952,1.75 -20.46812,1.75 L 569,336 569,314.5 z M 455.70031,277.63262 C 456.14014,276.88057 462.125,267.43635 469,256.64548 l 12.5,-19.61976 14.25,-0.0129 L 510,237 l 0,21 0,21 -27.54969,0 c -23.02425,0 -27.41833,-0.22461 -26.75,-1.36738 z M 522,258 l 0,-21 12.83303,0 12.83302,0 12.514,19.75 c 6.88269,10.8625 12.83439,20.3125 13.22599,21 0.56175,0.98624 -4.78674,1.25 -25.34702,1.25 L 522,279 l 0,-21 z m -30,-35.93475 c 0,-1.24807 22.9926,-34.07405 23.83853,-34.03369 0.36381,0.0174 5.41177,7.55486 11.2177,16.75 l 10.55624,16.71844 -9.05624,0.63807 C 514.21203,223.14871 492,223.10446 492,222.06525 z"
     id="path2987"
     inkscape:connector-curvature="0" />
</svg>
