<?xml version="1.0" encoding="UTF-8" standalone="no"?>
<!-- Created with Inkscape (http://www.inkscape.org/) -->

<svg
   xmlns:dc="http://purl.org/dc/elements/1.1/"
   xmlns:cc="http://creativecommons.org/ns#"
   xmlns:rdf="http://www.w3.org/1999/02/22-rdf-syntax-ns#"
   xmlns:svg="http://www.w3.org/2000/svg"
   xmlns="http://www.w3.org/2000/svg"
   xmlns:sodipodi="http://sodipodi.sourceforge.net/DTD/sodipodi-0.dtd"
   xmlns:inkscape="http://www.inkscape.org/namespaces/inkscape"
   id="svg2"
   version="1.1"
   inkscape:version="0.48.2 r9819"
   width="1024"
   height="798"
   sodipodi:docname="pyramidal-clean.png">
  <metadata
     id="metadata8">
    <rdf:RDF>
      <cc:Work
         rdf:about="">
        <dc:format>image/svg+xml</dc:format>
        <dc:type
           rdf:resource="http://purl.org/dc/dcmitype/StillImage" />
        <dc:title></dc:title>
      </cc:Work>
    </rdf:RDF>
  </metadata>
  <defs
     id="defs6" />
  <sodipodi:namedview
     pagecolor="#ffffff"
     bordercolor="#666666"
     borderopacity="1"
     objecttolerance="10"
     gridtolerance="10"
     guidetolerance="10"
     inkscape:pageopacity="0"
     inkscape:pageshadow="2"
     inkscape:window-width="1920"
     inkscape:window-height="1061"
     id="namedview4"
     showgrid="false"
     inkscape:zoom="1"
     inkscape:cx="-232.85416"
     inkscape:cy="558.56729"
     inkscape:window-x="-4"
     inkscape:window-y="-4"
     inkscape:window-maximized="1"
     inkscape:current-layer="svg2" />
  <path
     style="fill:#000000"
     d="m 291.75,714.9199 c -0.9625,-0.5606 -1.75,-1.58755 -1.75,-2.28211 0,-0.69456 -2.77083,-5.2847 -6.15741,-10.20031 -3.38657,-4.91561 -18.50366,-27.37864 -33.59353,-49.91785 -15.08987,-22.5392 -31.33154,-46.10062 -36.0926,-52.35871 -4.76105,-6.25809 -7.38485,-9.79139 -9.8572,-13.19964 -0.64241,-0.8856 6.52439,-15.46098 24.13369,-51.14129 13.65893,-27.676 27.26447,-55.45101 30.23454,-61.72225 l 5.40013,-11.40226 -30.28381,0.60774 C 134.4922,465.2958 24.56966,468.4748 16.5,469.58715 c -3.60603,0.49706 -4.33799,0.2013 -7.43165,-3.00291 -1.8874,-1.95485 -3.09268,-3.89325 -2.67838,-4.30754 0.41429,-0.4143 12.08353,-0.61975 25.93165,-0.45656 13.84811,0.16318 41.82838,-0.23037 62.17838,-0.87456 20.35,-0.64419 67.35818,-1.45798 104.46261,-1.80842 L 266.42523,458.5 267.68426,456 c 4.98373,-9.8959 98.14098,-198.7648 121.08984,-245.5 62.28111,-126.835014 82.06418,-167.410784 83.33189,-170.916566 1.74907,-4.836965 4.48852,-7.328981 6.5956,-5.99987 0.87148,0.549719 2.89218,3.455801 4.49044,6.457962 15.67353,29.441128 24.49696,46.293552 35.70278,68.191004 7.24261,14.15289 18.16713,35.07789 24.2767,46.5 6.10958,11.42211 12.27148,23.24247 13.69311,26.26747 6.3278,13.46452 19.54221,39.6371 20.7007,41 0.70126,0.825 5.85875,10.725 11.46108,22 5.60233,11.275 11.93825,23.50351 14.07983,27.17447 2.14157,3.67096 3.89377,7.46053 3.89377,8.42126 0,0.96073 0.62591,2.45722 1.39092,3.32553 1.30998,1.48687 44.93733,88.14973 59.69427,118.57874 3.73422,7.7 8.34381,16.925 10.24353,20.5 1.89973,3.575 6.09042,11.9 9.31266,18.5 l 5.85862,12 15,-0.30253 c 34.03177,-0.68637 208.59143,-2.16674 255.5,-2.16679 27.775,-3e-5 51.0838,0.37028 51.7973,0.8229 5.5381,3.51308 -12.6626,3.98717 -218.7973,5.69921 -45.375,0.37686 -86.1,0.96915 -90.5,1.31621 -7.3821,0.58226 -8.02533,0.80972 -8.32793,2.94491 -0.20673,1.45874 2.98428,8.48066 8.63428,19 4.92921,9.17735 17.98668,34.68609 29.01661,56.68609 11.02993,22 20.64451,40.74362 21.36573,41.65249 1.2094,1.52407 5.40511,1.56789 53.98655,0.56383 38.78462,-0.80158 53.28829,-0.79372 55,0.0298 2.85521,1.3737 6.43906,1.24231 -57.27201,2.09979 -53.48884,0.7199 -50.40993,0.30663 -53.94767,7.24117 -1.71185,3.35549 -1.74043,3.78146 -0.29111,4.33762 0.88394,0.3392 37.88355,0.11662 82.22135,-0.49462 44.33781,-0.61124 86.2392,-0.74677 93.1142,-0.30117 l 12.5,0.81017 -9.5,0.66851 c -5.225,0.36769 -38.3,0.75894 -73.5,0.86946 -35.2,0.11051 -74.27867,0.50012 -86.84148,0.86579 -22.45527,0.65361 -22.87396,0.70497 -24.76268,3.03744 -2.04512,2.52561 -3.49356,6.85531 -2.59421,7.75465 0.298,0.298 47.71454,0.10104 105.37009,-0.43768 57.65556,-0.53873 110.90328,-0.65566 118.32828,-0.25984 13.18008,0.70262 12.93125,0.72717 -10.5,1.03584 -13.2,0.17389 -67.18146,0.58854 -119.9588,0.92144 l -95.9588,0.60528 -3.78616,5 c -2.08239,2.75 -3.78843,5.40947 -3.7912,5.90993 -0.003,0.54391 25.0356,0.6449 62.24496,0.25105 126.14096,-1.33514 192.29619,-1.57619 185.75,-0.67683 -3.575,0.49116 -60.67112,1.3573 -126.88026,1.92477 -104.45359,0.89526 -120.68498,1.23142 -122.68342,2.54085 -3.09991,2.03114 -7.89368,8.42639 -6.99169,9.32745 0.81469,0.81384 3.45773,0.80009 168.84698,-0.87833 80.29655,-0.81487 120.12309,-0.88417 120.79709,-0.21019 0.674,0.67398 -28.93014,1.25736 -89.79161,1.76945 -49.9384,0.42018 -115.7124,1.05149 -146.16444,1.40291 L 724.76529,634.5 720.88535,639 c -2.13397,2.475 -3.88116,5.0625 -3.88265,5.75 -0.002,0.95938 5.40288,1.28948 23.2473,1.41981 l 23.25,0.16982 -23,0.87722 c -12.65,0.48246 -23.9,1.06168 -25,1.28714 -1.99759,0.40944 -7.5,7.82101 -7.5,10.10227 0,0.92744 7.44755,1.08154 32.25,0.66732 17.7375,-0.29624 31.95951,-0.226 31.60448,0.15609 -0.35504,0.38209 -14.98004,1.01959 -32.5,1.41665 -23.69291,0.53697 -32.37568,1.06057 -33.88872,2.04362 -2.17947,1.41603 -6.46576,7.4333 -6.46576,9.0769 0,0.62138 8.35331,1.10349 22.25,1.28416 l 22.25,0.28926 -23.11711,0.22987 -23.11712,0.22987 -2.47227,3.75 c -1.35976,2.0625 -3.03183,4.80256 -3.71572,6.08903 l -1.24344,2.33902 52.08283,-0.73428 C 780.80381,684.89553 794,684.99965 794,685.85474 794,686.7005 780.31115,687 741.65499,687 c -48.59964,0 -52.4551,0.12522 -53.88349,1.75 -1.49634,1.70207 -5.7715,9.632 -5.7715,10.70546 0,0.29432 10.125,0.24047 22.5,-0.11968 15.29235,-0.44505 22.5,-0.32255 22.5,0.3824 0,0.66442 -8.1768,1.30054 -22.75,1.76986 -22.45487,0.72314 -26.25,1.29056 -26.25,3.9247 0,4.72607 -7.84633,5.28694 -92,6.5763 -37.675,0.57724 -102.25,1.70725 -143.5,2.51115 -88.42265,1.72321 -148.22616,1.88971 -150.75,0.41971 z M 391,704.94013 c 32.725,-0.55768 82.675,-1.43592 111,-1.95165 28.325,-0.51574 76.98936,-0.94913 108.14301,-0.96309 50.57159,-0.0227 56.70769,-0.19394 57.24642,-1.59783 0.33187,-0.86485 0.20245,-2.32735 -0.2876,-3.25 -0.49006,-0.92266 -2.28084,-6.85256 -3.97952,-13.17756 -1.69868,-6.325 -4.65361,-16.53057 -6.56652,-22.67904 -1.9129,-6.14848 -5.78184,-19.64848 -8.59763,-30 C 645.14237,620.96943 640.1906,603.95 636.95423,593.5 c -3.23638,-10.45 -7.73083,-25.975 -9.98768,-34.5 -2.25685,-8.525 -8.52973,-30.125 -13.93972,-48 -5.40999,-17.875 -15.98516,-53.2 -23.50036,-78.5 -7.51521,-25.3 -15.47724,-52.075 -17.69341,-59.5 -2.21616,-7.425 -6.87339,-23.4 -10.34939,-35.5 -3.476,-12.1 -8.33538,-28.525 -10.79863,-36.5 -2.46324,-7.975 -4.9928,-16.975 -5.62124,-20 -0.62844,-3.025 -2.90258,-11.125 -5.05365,-18 -6.87193,-21.96328 -14.02101,-45.87389 -20.63045,-69 -3.53678,-12.375 -7.72602,-26.55 -9.30943,-31.5 -4.06191,-12.6982 -11.5651,-38.49953 -14.00752,-48.1678 -1.13485,-4.4923 -2.96997,-10.28284 -4.07805,-12.86789 -1.10808,-2.585043 -3.36404,-10.044883 -5.01326,-16.577421 -1.64921,-6.532538 -3.91748,-13.640315 -5.04059,-15.79506 -1.12312,-2.154745 -2.11278,-4.856893 -2.19925,-6.004773 -0.16708,-2.218156 -2.16071,-2.819789 -3.28985,-0.992806 -0.37196,0.601838 -5.73112,20.739338 -11.90925,44.75 -6.17814,24.01066 -14.20025,54.00575 -17.82692,66.65575 -6.31072,22.01214 -19.45748,69.36189 -31.09702,112 -3.00283,11 -7.50122,27.425 -9.99641,36.5 -2.49519,9.075 -11.95011,44.175 -21.01093,78 -9.06082,33.825 -20.8129,77.25 -26.11574,96.5 -5.30284,19.25 -10.98812,40.625 -12.63394,47.5 -1.64583,6.875 -5.02245,19.7 -7.50361,28.5 -2.48115,8.8 -8.04229,29.275 -12.35808,45.5 -9.97752,37.51003 -14.19647,53.06525 -19.07845,70.34191 C 304.76013,695.95497 303,703.28252 303,704.62536 l 0,2.44153 14.25,-0.5564 c 7.8375,-0.30602 41.025,-1.01268 73.75,-1.57036 z M 299.38522,678.25 c 2.59835,-10.3125 7.82112,-30.225 11.60614,-44.25 3.78503,-14.025 9.84047,-36.525 13.45653,-50 3.61606,-13.475 7.06951,-25.625 7.67434,-27 0.60482,-1.375 1.31528,-3.85 1.5788,-5.5 0.69642,-4.36054 23.865,-92.29089 27.27099,-103.5 1.58767,-5.225 3.62034,-12.425 4.51706,-16 9.86798,-39.34138 81.3951,-298.59429 88.14912,-319.5 7.28455,-22.547883 8.4341,-30.5 4.40905,-30.5 -1.2338,0 -3.93553,4.590814 -9.56328,16.25 C 436.19564,123.70815 379.13204,240.75668 336.96358,327 300.41852,401.74229 219.65743,562.82551 213.67049,574.97861 l -3.76019,8.65539 8.66214,11.53864 c 2.92862,3.90114 -3.10664,-4.03855 38.42756,49.38004 12.93648,16.63806 17.57117,26.38988 19.13107,28.44732 1.0425,1.375 5.37156,7.3375 9.62013,13.25 4.24857,5.9125 7.99132,10.75 8.31721,10.75 0.3259,0 2.71846,-8.4375 5.31681,-18.75 z m 385.33123,-5.90569 c 21.11415,-29.47073 38.06788,-53.7869 52.06763,-74.67886 14.38602,-21.46841 14.60629,-21.87926 13.13531,-24.5 -0.82285,-1.466 -2.00015,-2.66545 -2.61624,-2.66545 -0.61609,0 -2.62383,2.13021 -4.46165,4.73381 -1.83783,2.6036 -6.9415,9.76664 -11.3415,15.91789 -4.4,6.15124 -10.925,15.51158 -14.5,20.80076 -3.575,5.28917 -15.05,21.66201 -25.5,36.38408 -10.45,14.72207 -19.38262,27.31585 -19.85028,27.98618 -1.00658,1.44282 0.99754,9.67728 2.35528,9.67728 0.51035,0 5.3305,-6.14506 10.71145,-13.65569 z M 692.75261,643.5 c 10.98223,-15.95 27.45562,-39.77294 36.60754,-52.93986 C 738.51207,577.39321 746,565.90584 746,565.03264 746,562.86965 743.18029,559 741.60417,559 c -1.35461,0 -7.53872,8.14119 -19.10417,25.15005 -13.52024,19.88369 -46.79706,67.39251 -49.97597,71.34995 -5.26297,6.55189 -5.81496,8.07574 -4.4551,12.29897 1.42882,4.43739 2.97803,6.57507 3.98116,5.49341 0.40417,-0.43581 9.7203,-13.84238 20.70252,-29.79238 z m -12.59224,-1.75 c 6.82012,-10.0375 23.12617,-33.69858 36.23565,-52.58017 l 23.83543,-34.33017 -1.7676,-3.91983 C 737.49167,548.76392 736.35719,547 735.94278,547 c -1.07642,0 -6.76901,7.9231 -41.87105,58.27725 l -31.21436,44.77725 1.65168,4.97275 c 0.90843,2.73501 2.01155,4.97275 2.45139,4.97275 0.43984,0 6.37981,-8.2125 13.19993,-18.25 z m -10.66847,-4.5 c 3.18567,-4.8125 11.2921,-16.625 18.01429,-26.25 6.72219,-9.625 20.14237,-28.95743 29.82262,-42.96095 l 17.60046,-25.46096 -1.91758,-3.03904 c -1.05467,-1.67148 -2.54704,-3.1717 -3.31637,-3.33382 -0.837,-0.17638 -5.3523,5.44639 -11.24254,14 -24.61972,35.75195 -51.14386,73.80224 -55.12477,79.07942 l -4.36373,5.78466 1.58882,5.46534 c 0.87385,3.00594 1.93934,5.46535 2.36775,5.46535 0.42842,0 3.38539,-3.9375 6.57105,-8.75 z m 3.60178,-25.5 c 7.33728,-10.5875 22.69281,-32.68976 34.12341,-49.11614 C 718.64769,546.20748 728,532.12264 728,531.3342 728,529.25136 725.11609,524 723.97225,524 c -1.1993,0 -6.26944,6.84549 -20.82531,28.11749 -6.16557,9.01038 -17.33337,25.15751 -24.81734,35.88251 -24.52349,35.14371 -22.57938,31.84741 -21.81107,36.98141 0.73781,4.93021 1.17491,6.01859 2.41707,6.01859 0.44966,0 6.8208,-8.6625 14.15808,-19.25 z m -9.66491,-5.8303 c 3.82083,-5.73084 17.94218,-26.1697 31.38077,-45.4197 13.4386,-19.25 25.15187,-36.49283 26.02949,-38.31741 1.41431,-2.94034 1.4289,-3.6132 0.12833,-5.91982 -0.80705,-1.43133 -1.9934,-2.77634 -2.63634,-2.98892 -1.33497,-0.44138 -7.86386,8.15133 -21.91183,28.83829 -17.02901,25.07682 -42.65702,60.98336 -43.16431,60.47607 -0.26875,-0.26874 2.51512,-5.12353 6.18636,-10.78842 6.99874,-10.79937 9.37454,-14.24576 36.9906,-53.65957 21.12824,-30.15436 20.13165,-28.37277 18.40667,-32.905 -0.74859,-1.96684 -1.88489,-3.75068 -2.52513,-3.96409 -1.14406,-0.38136 -7.18253,7.92216 -35.4365,48.72887 -7.80664,11.275 -17.70748,25.52804 -22.00186,31.67343 l -7.80796,11.17342 2.31411,6.82658 c 1.27276,3.75461 2.88256,9.20994 3.57734,12.12295 0.73109,3.06527 1.73925,5.1377 2.39326,4.9197 0.62152,-0.20718 4.25616,-5.06555 8.077,-10.79638 z m 2.88238,-44.26155 c 7.80387,-11.34259 21.06219,-30.52749 29.46295,-42.63312 l 15.2741,-22.01023 -2.11552,-4.14675 -2.11551,-4.14676 -2.81003,2.88936 C 702.46162,493.19979 688.92667,512.275 673.92947,534 c -14.99721,21.725 -28.14274,40.69227 -29.21231,42.14949 -1.89074,2.57603 -1.89557,2.79729 -0.17439,7.97928 l 1.77027,5.32978 2.90463,-3.58876 c 1.59754,-1.97382 9.28961,-12.86906 17.09348,-24.21164 z M 661.57846,548.1203 C 670.687,534.57914 680.95403,519.675 684.3941,515 c 19.11416,-25.97589 21.93561,-31.58167 17.78564,-35.33734 -1.70556,-1.54351 -1.98035,-1.47451 -4.36077,1.09501 -1.39728,1.50828 -6.99066,9.24168 -12.42974,17.18534 -5.43908,7.94365 -13.34689,19.41865 -17.57291,25.5 C 663.59029,529.52435 655.38168,541.475 649.57496,550 l -10.55767,15.5 1.09839,4 c 1.46916,5.35017 1.82136,5.79714 3.48209,4.41886 0.78084,-0.64804 8.87215,-12.25739 17.98069,-25.79856 z M 641.23578,558.25 c 1.45145,-1.64324 39.0911,-56.21488 52.13267,-75.58428 l 5.94819,-8.83428 -2.26995,-4.66572 c -2.16649,-4.45309 -2.33493,-4.57457 -3.69588,-2.66572 -3.50316,4.91352 -24.16211,34.71894 -36.32277,52.4042 -7.33845,10.67232 -15.29685,21.80346 -17.68534,24.73588 -2.38848,2.93241 -4.3427,5.88548 -4.3427,6.56236 0,1.9377 3.19356,9.79756 3.98087,9.79756 0.39004,0 1.40475,-0.7875 2.25491,-1.75 z m 10.59718,-35.31706 C 682.16931,478.83005 693,462.65353 693,461.44661 c 0,-0.67377 -0.84842,-2.2728 -1.88538,-3.55339 -1.65599,-2.04506 -2.09154,-2.15726 -3.5797,-0.9222 -0.93187,0.77338 -11.65884,15.83379 -23.83771,33.46757 -12.17887,17.63377 -24.48238,35.32155 -27.34114,39.30617 -4.98095,6.94258 -5.15488,7.40139 -4.16987,11 1.29992,4.74913 1.73504,5.44816 3.10663,4.99096 0.61025,-0.20341 8.05331,-10.46467 16.54013,-22.80278 z M 640.11681,521.25 c 4.58075,-6.4625 10.54053,-15.125 13.24395,-19.25 2.70342,-4.125 11.15291,-16.55485 18.77665,-27.6219 7.62374,-11.06704 14.12245,-21.42738 14.44157,-23.02298 0.42861,-2.14308 0.0533,-3.37791 -1.43637,-4.72606 -1.10912,-1.00374 -2.39369,-1.59192 -2.85459,-1.30707 -0.46091,0.28486 -6.00176,8.01481 -12.31301,17.17767 -31.74225,46.08431 -37.39642,54.18823 -40.07382,57.43638 -1.59565,1.93581 -2.90119,4.13661 -2.90119,4.89067 0,1.92321 3.06492,8.17329 4.00803,8.17329 0.42908,0 4.52803,-5.2875 9.10878,-11.75 z m -1.55715,-16.75 c 5.35718,-7.7 17.37104,-25.18214 26.69747,-38.84921 l 16.95715,-24.8492 -1.75902,-3.9008 c -0.96745,-2.14543 -2.02817,-3.88665 -2.35713,-3.86937 -0.32897,0.0173 -1.311,1.02979 -2.18228,2.25 -3.66592,5.13409 -51.61188,74.31615 -52.22314,75.35371 -0.36782,0.62432 -0.18451,2.64932 0.40734,4.5 0.59185,1.85068 1.278,4.00726 1.52477,4.79241 0.63839,2.03119 1.51845,0.98153 12.93484,-15.42754 z m 8.86134,-31.93745 c 28.71304,-41.81011 28.94771,-42.20642 27.48198,-46.41102 C 674.29873,424.41819 673.48256,423 673.08927,423 c -1.5636,0 -6.43943,6.45941 -21.13556,28 -8.44289,12.375 -19.27395,28.0422 -24.06902,34.81601 l -8.71831,12.31601 1.51081,4.43399 c 0.83095,2.43869 1.86702,4.43399 2.30238,4.43399 0.43536,0 11.434,-15.49685 24.44143,-34.43745 z m -26.3301,19.15603 c 6.21441,-8.66622 37.54599,-54.15963 43.07435,-62.54388 6.70837,-10.17385 6.78605,-10.3682 5.29581,-13.25 -0.83183,-1.60858 -1.97992,-2.9247 -2.5513,-2.9247 -1.50313,0 -5.39223,4.85641 -13.9543,17.42504 -10.84891,15.9256 -27.68427,40.11009 -32.67247,46.93497 -4.40495,6.02688 -5.15468,9.21707 -3.30774,14.07489 1.186,3.11941 2.03999,3.17827 4.11565,0.28368 z M 617.65616,477.25 c 3.54456,-4.79635 32.69146,-46.37889 39.07746,-55.75 7.52956,-11.04923 8.61187,-13.64763 7.08262,-17.00396 -2.29783,-5.0432 -1.21994,-6.30503 -31.1828,36.50396 -10.97124,15.675 -20.14671,29.25777 -20.38993,30.18394 -0.5103,1.94316 1.55248,8.81606 2.64598,8.81606 0.40392,0 1.64892,-1.2375 2.76667,-2.75 z m 5.20184,-25.55033 c 5.43738,-7.80982 15.97693,-23.15951 23.42123,-34.11042 l 13.5351,-19.91075 -1.59238,-3.33925 C 657.34614,392.50266 656.34711,391 656.00188,391 c -1.78138,0 -5.16477,4.61275 -35.20731,48 -3.61793,5.225 -7.97677,11.24938 -9.68631,13.3875 -1.70955,2.13813 -3.10826,4.74009 -3.10826,5.78212 0,3.01458 2.85851,9.03586 3.96498,8.35202 0.55379,-0.34226 5.45565,-7.01215 10.89302,-14.82197 z M 622.21002,433.5 C 642.9191,403.5613 654,386.87471 654,385.62785 654,384.05841 651.12097,380 650.00762,380 c -1.09885,0 -13.78552,17.57291 -39.28261,54.41221 -7.11834,10.2849 -7.19881,10.58119 -4.67593,17.21688 1.32819,3.49341 0.77522,4.11372 16.16094,-18.12909 z m -16.11724,4.1083 c 3.72024,-4.27865 39.58075,-57.40593 40.90257,-60.59707 1.33187,-3.21543 0.1903,-8.01123 -1.90696,-8.01123 -1.48857,0 -6.43005,6.58513 -24.76318,33 -22.76081,32.79439 -20.64746,29.08955 -19.34748,33.91729 1.26673,4.70427 2.22081,5.01969 5.11505,1.69101 z m 8.21775,-30.38915 c 7.37093,-10.84553 16.84144,-24.62671 21.04558,-30.62483 C 639.56025,370.59619 643,364.95882 643,364.06682 643,362.12959 640.26248,358 638.97828,358 c -0.98216,0 -16.42577,21.44753 -32.76429,45.50189 l -10.18979,15.00188 1.09494,3.99812 c 1.35291,4.94007 1.78239,5.677 2.90438,4.98357 0.48693,-0.30094 6.91609,-9.42078 14.28701,-20.26631 z m -7.31351,-8.46095 c 32.68941,-47.18029 31.40257,-44.97321 28.66107,-49.15727 -0.93731,-1.43051 -2.03132,-2.59552 -2.43114,-2.5889 -0.39982,0.007 -6.31739,7.99411 -13.15015,17.75 -23.78373,33.95864 -26.27182,37.37629 -26.815,36.83311 -0.30056,-0.30056 8.06758,-13.36803 18.59586,-29.03881 C 623.53473,355.17565 631,343.1243 631,341.65444 c 0,-1.32525 -0.68819,-2.9807 -1.52932,-3.67877 -2.30569,-1.91356 -4.31038,0.4207 -20.86576,24.29613 -8.09588,11.67551 -16.0465,23.03322 -17.66805,25.23936 l -2.94826,4.01115 3.18369,10.77789 c 2.43648,8.24833 3.55194,10.70697 4.75271,10.47573 0.86296,-0.1662 5.84536,-6.47417 11.07201,-14.01773 z M 602.58401,367.5 C 618.61816,344.36221 626,332.8561 626,331.00139 c 0,-0.85601 -0.71554,-2.57796 -1.5901,-3.82656 -1.29271,-1.8456 -1.8644,-2.04252 -3.05681,-1.0529 -1.20924,1.00358 -33.2611,46.4159 -35.76663,50.67554 -0.41974,0.7136 -0.21786,3.57056 0.44863,6.34878 1.16995,4.8769 1.27319,4.98748 2.98998,3.20253 0.978,-1.01683 7.07952,-9.49878 13.55894,-18.84878 z m -12.61609,-0.75 c 2.7425,-3.9875 10.84664,-15.76737 18.00922,-26.17748 C 615.13971,330.16241 621,321.09976 621,320.4333 c 0,-0.66645 -0.89385,-2.27408 -1.98634,-3.57252 L 617.02732,314.5 615.00498,317 c -1.11229,1.375 -7.88608,11.05 -15.05287,21.5 -7.1668,10.45 -14.3992,20.8516 -16.07201,23.11468 -2.90212,3.92615 -2.9847,4.30415 -1.8025,8.25 0.68144,2.27442 1.6136,4.13532 2.07147,4.13532 0.45788,0 3.07636,-3.2625 5.81885,-7.25 z m -6.22764,-8.5 c 1.59958,-2.0625 7.34861,-10.275 12.77561,-18.25 5.42699,-7.975 11.80605,-17.34772 14.17569,-20.82826 4.20522,-6.17667 5.23842,-10.15463 3.39403,-13.06746 -0.48607,-0.76764 -1.49168,-1.16219 -2.23469,-0.87677 -0.743,0.28542 -8.6924,11.14159 -17.66532,24.12484 l -16.31441,23.60589 0.67795,4.52088 c 0.37287,2.48648 1.03904,4.52088 1.48037,4.52088 0.44134,0 2.11118,-1.6875 3.71077,-3.75 z m -3.661,-12.50003 c 5.14998,-6.48912 28.02544,-39.90173 29.64881,-43.30595 1.61749,-3.39192 1.60007,-3.55923 -0.59557,-5.71908 l -2.2618,-2.22494 -2.45577,3 c -1.35067,1.65 -6.91274,9.525 -12.36016,17.5 -5.44741,7.975 -11.56656,16.84756 -13.59811,19.71679 -3.37594,4.76797 -3.63524,5.6068 -3.01393,9.75 0.37389,2.49327 0.98972,4.5332 1.36852,4.53318 0.3788,-2e-5 1.84941,-1.46252 3.26801,-3.25 z M 577.69474,331.75 c 8.05453,-10.74613 26.28042,-37.55447 27.23032,-40.05291 0.77166,-2.0296 0.59826,-3.0642 -0.80376,-4.79561 l -1.78768,-2.2077 -5.53407,6.90311 C 593.75582,295.3936 588.05076,303.225 584.12164,309 c -3.92912,5.775 -8.54498,12.37896 -10.25747,14.67547 -2.79526,3.74854 -3.04347,4.64319 -2.42762,8.75 0.3773,2.51599 1.05436,4.57453 1.50458,4.57453 0.45022,0 2.58934,-2.3625 4.75361,-5.25 z m 1.58785,-19.5 C 593.65529,292.15036 600,282.16992 600,279.6608 c 0,-2.69769 -2.34901,-5.18117 -3.95931,-4.18595 C 594.30958,276.54474 567,316.13322 567,317.57278 c 0,1.91154 2.17856,6.42722 3.10076,6.42722 0.42885,0 4.56068,-5.2875 9.18183,-11.75 z m -8.97585,-4.5 C 577.55988,298.79065 595,271.92679 595,269.71378 c 0,-3.16949 -1.85208,-4.86331 -4.03834,-3.69326 -0.95257,0.5098 -5.02632,5.77623 -9.05278,11.70319 -4.02647,5.92696 -9.70316,14.10593 -12.61486,18.17548 -5.10795,7.13913 -6.20952,10.55147 -4.68703,14.51902 0.93175,2.42812 1.96586,1.94402 5.69975,-2.66821 z m -3.50954,-12 c 2.12317,-2.8875 8.47536,-12.13349 14.116,-20.54664 10.0464,-14.98445 10.2229,-15.3467 8.6482,-17.75 C 588.67727,256.10401 587.59271,255 587.15126,255 c -1.47403,0 -4.88818,4.38258 -15.5599,19.97354 C 562.83936,287.75985 561,291.08871 561,294.14175 c 0,3.48533 0.77481,6.85825 1.57544,6.85825 0.19881,0 2.0986,-2.3625 4.22176,-5.25 z m 0.92672,-18.73798 c 4.27685,-6.04339 9.97878,-14.60883 12.67096,-19.03432 4.3184,-7.0987 4.76257,-8.33672 3.77144,-10.51202 -0.61789,-1.35612 -1.69559,-2.45154 -2.39488,-2.43426 -1.44907,0.0358 -0.94322,-0.62771 -15.1063,19.81502 -8.68482,12.53551 -10.45212,15.68307 -9.64871,17.18426 0.54096,1.0108 0.98357,2.7674 0.98357,3.90356 0,1.13616 0.43827,2.06574 0.97392,2.06574 0.53566,0 4.47316,-4.94459 8.75,-10.98798 z M 557.64606,274.25 C 563.56804,266.66631 580,240.99939 580,239.33288 c 0,-1.14839 -0.69954,-2.66855 -1.55453,-3.37813 -2.09204,-1.73625 -3.02102,-0.71008 -15.34835,16.95403 -10.35119,14.83245 -10.26232,14.60766 -8.43679,21.34122 0.26095,0.9625 0.73201,1.75 1.04682,1.75 0.3148,0 1.18731,-0.7875 1.93891,-1.75 z m 2.26673,-20.05925 c 10.71853,-15.01282 14.21335,-21.23057 13.87798,-24.69075 -0.58324,-6.01757 -3.66591,-3.8171 -12.60821,9 -10.59018,15.17902 -11.63122,17.29492 -10.76941,21.88875 C 550.78576,262.37494 551.49985,264 552,264 c 0.50016,0 4.06091,-4.41416 7.91279,-9.80925 z m -1.28969,-15.946 c 12.08962,-18.21406 11.89584,-17.8038 9.86975,-20.89601 -1.56283,-2.38518 -1.74745,-2.4283 -3.52171,-0.82262 -1.02983,0.93198 -5.06487,6.25737 -8.96676,11.83419 -3.90188,5.57683 -7.98067,11.26831 -9.06396,12.64773 -1.88725,2.40315 -1.89994,2.68543 -0.30333,6.75 0.91646,2.33308 1.93553,4.2396 2.2646,4.23671 0.32907,-0.003 4.70371,-6.19039 9.72141,-13.75 z m -3.72007,-11.76278 C 561.36045,216.88499 564,212.08803 564,209.94967 c 0,-3.42851 -2.22485,-4.83788 -4.5677,-2.89349 C 556.08868,209.83114 543,229.92744 543,232.28625 c 0,3.95869 1.17657,8.72266 2.02479,8.19843 0.4297,-0.26557 4.87491,-6.56679 9.87824,-14.00271 z M 548.5,218.49374 c 9.4915,-13.45229 11.83457,-18.00008 10.52984,-20.43799 -1.40464,-2.62458 -2.82587,-2.596 -5.71145,0.11486 -3.25848,3.06119 -3.67716,1.8947 -1.27173,-3.54318 2.12273,-4.7988 1.89327,-8.62743 -0.51708,-8.62743 -0.73461,0 -4.59956,4.79501 -8.5888,10.65558 -5.84909,8.59289 -7.22752,11.33709 -7.12079,14.17617 0.20775,5.52625 1.6354,5.81556 4.97549,1.00827 3.70919,-5.33852 7.24228,-9.13559 7.89403,-8.48385 0.26862,0.26862 -1.27883,2.88588 -3.43877,5.81612 -2.15994,2.93024 -4.45771,6.32508 -5.10615,7.54409 -1.38151,2.59714 -0.45956,10.28425 1.23322,10.28239 0.6172,-6.8e-4 3.82219,-3.82795 7.12219,-8.50503 z m -8.69031,-21.02979 c 2.6397,-3.59483 6.12226,-8.98141 7.739,-11.97018 2.66844,-4.93296 2.79506,-5.57859 1.37296,-7.00069 -0.86161,-0.86161 -2.22958,-1.31214 -3.03994,-1.00118 -0.81035,0.31096 -4.3212,4.79619 -7.80188,9.96718 -5.71693,8.49322 -6.2638,9.74676 -5.65886,12.97136 0.36831,1.96326 1.10156,3.56956 1.62945,3.56956 0.52789,0 3.11956,-2.94122 5.75927,-6.53605 z M 536.67681,185.75 c 7.64182,-10.9841 8.75473,-13.50746 7.33327,-16.62722 l -1.18464,-2.6 -3.16272,3.53987 c -1.7395,1.94692 -5.10087,5.76679 -7.46971,8.4886 -5.03366,5.7837 -4.60196,4.59162 1.82929,-5.05125 6.80413,-10.20197 7.22911,-11.16173 5.9777,-13.5 -1.80428,-3.37134 -3.5425,-2.30046 -8.94055,5.50811 -5.07689,7.34397 -5.18142,7.64003 -4.78157,13.54333 0.22484,3.31938 0.92929,6.55573 1.56546,7.1919 C 528.4795,186.8795 529,188.36 529,189.53333 c 0,2.13459 0.76202,3.46667 1.9831,3.46667 0.35737,0 2.91954,-3.2625 5.69371,-7.25 z m -8.59369,-20 c 6.61049,-9.07545 8.27227,-12.67459 7.07019,-15.31287 C 534.54257,149.09671 533.60953,148 533.07989,148 c -1.12919,0 -9.4128,10.63398 -10.42599,13.38424 -0.84298,2.28822 0.22274,8.61576 1.45112,8.61576 0.48534,0 2.27548,-1.9125 3.9781,-4.25 z m -1.72044,-13.11627 c 4.85545,-7.18925 5.54748,-9.63347 3.26407,-11.52854 -1.95578,-1.62315 -3.6688,-0.62819 -7.37675,4.28454 -3.25948,4.31855 -4.00773,8.17889 -2.60243,13.42636 0.72486,2.70668 0.68998,2.73879 6.71511,-6.18236 z m -4.34087,-10.78877 c 4.23471,-6.55192 4.80782,-8.91154 2.60791,-10.7373 -1.07973,-0.8961 -2.13991,-0.28534 -5,2.88043 -3.6035,3.98865 -4.04599,5.20579 -3.63983,10.01191 0.47084,5.5715 1.20831,5.30802 6.03192,-2.15504 z m -4.06985,-9.27514 c 3.33517,-4.8475 4.06161,-10.24365 1.51079,-11.22249 -1.85726,-0.7127 -5.34093,2.23353 -6.63075,5.6078 -1.03725,2.71351 -0.15567,10.04487 1.20786,10.04487 0.47523,0 2.23568,-1.99358 3.9121,-4.43018 z m -3.09779,-12.73987 c 1.60339,-3.24074 1.78582,-4.52598 0.91401,-6.4394 -1.39107,-3.05306 -1.80169,-3.00878 -5.22397,0.5633 -2.74719,2.86745 -2.79264,3.08719 -1.55382,7.51184 1.47208,5.25772 2.61025,4.94022 5.86378,-1.63574 z m -4.92675,-8.46481 c 2.43943,-3.10123 2.611,-5.25826 0.63025,-7.92401 -1.42116,-1.91265 -1.47409,-1.9098 -3.60731,0.19396 -1.81457,1.78951 -2.05246,2.80111 -1.46977,6.25 0.81204,4.80642 1.61903,5.07502 4.44683,1.48005 z M 507,97.011661 c 0,-3.809486 -2.26678,-5.602022 -4.39405,-3.47475 -1.91121,1.911204 -1.9819,3.086193 -0.45005,7.480449 l 1.15589,3.31581 1.84411,-2.27737 C 506.17015,100.80325 507,98.533385 507,97.011661 z m -4,-8.268532 C 503,86.90718 500.86937,84 499.52383,84 c -2.36161,0 -2.66253,1.733608 -0.99043,5.705982 1.52065,3.612574 1.66565,3.701186 3.03181,1.852888 C 502.35435,90.491249 503,89.224165 503,88.743129 z m -6,-8.143561 C 497,78.308584 489.17799,62 488.07918,62 c -0.55682,0 0.58784,3.7125 2.54368,8.25 1.95583,4.5375 3.79329,9.0375 4.08323,10 C 495.33477,82.336952 497,82.590717 497,80.599568 z M 798.31195,671.69495 c 30.40692,-0.64376 45.83676,-0.61931 48,0.0761 2.26377,0.72769 -10.72811,1.00275 -44.81195,0.94874 l -48,-0.0761 z M 794,658.955 c 29.05579,-1.34609 127.54033,-2.31163 129.404,-1.26866 2.45915,1.37621 -42.59636,2.34992 -99.404,2.14826 -34.03845,-0.12083 -41.59551,-0.34241 -30,-0.8796 z m -14.5,-13.01439 c 17.51522,-1.13752 205.94882,-2.94438 211,-2.02324 5.41504,0.98749 -52.48967,1.95854 -146.5,2.45678 -47.5042,0.25177 -72.46845,0.084 -64.5,-0.43354 z M 997,618 c -3.41002,-0.53015 -1.91045,-0.73599 6.191,-0.84981 6.2185,-0.0874 10.9495,0.26815 11.309,0.84981 0.6983,1.12989 -10.2324,1.12989 -17.5,0 z"
     id="path2987"
     inkscape:connector-curvature="0"
     sodipodi:nodetypes="sssssssscssscssscsssssssssssssssscsscssssssssssssscssssssssscscssssssssscscscsssscsssscccsscsssssssssssssssssssssssssssssssssssssssssssssssscsssssssssssssscsssssssssssssssssssssssssssscssscsssssscsssscsssssssssssssssssscsssssscsscssscccsssscssssssssscssssscsssssssssssssscsssssssssssssscscscsssssssscsssssssssssssssssssscsssssssssssssssssssssssscssssscssssssscscssssssssssssscsssssssssssscsssssscssssssssscssssssssssssssssssssssssssssssssssssssssssssssssssssssscsssssssssssssssssssssssssssssscsssssssssssssssssssssssssssssssssssssssssssscssssssssssssscscssssssssssscs" />
</svg>
